<svg width="25" height="17" viewBox="0 0 25 17" fill="none" xmlns="http://www.w3.org/2000/svg">
<path d="M23.527 7.16663H2.06037C1.36081 7.16663 0.793701 7.73373 0.793701 8.43329V8.56663C0.793701 9.26619 1.36081 9.83329 2.06037 9.83329H23.527C24.2266 9.83329 24.7937 9.26619 24.7937 8.56663V8.43329C24.7937 7.73373 24.2266 7.16663 23.527 7.16663Z" fill="#1A1A1A"/>
<path d="M23.9493 13.8333H9.63815C9.17177 13.8333 8.7937 14.4004 8.7937 15.1V15.2333C8.7937 15.9329 9.17177 16.5 9.63815 16.5H23.9493C24.4156 16.5 24.7937 15.9329 24.7937 15.2333V15.1C24.7937 14.4004 24.4156 13.8333 23.9493 13.8333Z" fill="#1A1A1A"/>
<path d="M23.527 0.5H2.06037C1.36081 0.5 0.793701 1.06711 0.793701 1.76667V1.9C0.793701 2.59956 1.36081 3.16667 2.06037 3.16667H23.527C24.2266 3.16667 24.7937 2.59956 24.7937 1.9V1.76667C24.7937 1.06711 24.2266 0.5 23.527 0.5Z" fill="#1A1A1A"/>
</svg>
