<svg width="19" height="18" viewBox="0 0 19 18" fill="none" xmlns="http://www.w3.org/2000/svg">
<path d="M9.56079 1.62164C11.9638 1.62164 12.2484 1.63064 13.1976 1.67392C13.7684 1.6809 14.3337 1.7857 14.8691 1.98376C15.2573 2.13347 15.6099 2.36281 15.9041 2.65702C16.1983 2.95122 16.4276 3.30377 16.5774 3.69197C16.7754 4.22728 16.8802 4.79258 16.8872 5.36332C16.9301 6.31256 16.9395 6.59711 16.9395 9C16.9395 11.4029 16.9305 11.6874 16.8872 12.6367C16.8802 13.2074 16.7754 13.7727 16.5774 14.308C16.4276 14.6962 16.1983 15.0488 15.9041 15.343C15.6099 15.6372 15.2573 15.8665 14.8691 16.0162C14.3337 16.2143 13.7684 16.3191 13.1976 16.3261C12.2488 16.3689 11.9642 16.3784 9.56079 16.3784C7.15736 16.3784 6.87279 16.3694 5.92393 16.3261C5.35318 16.3191 4.78784 16.2143 4.25251 16.0162C3.86429 15.8665 3.51172 15.6372 3.21751 15.343C2.92329 15.0488 2.69394 14.6962 2.54422 14.308C2.34615 13.7727 2.24135 13.2074 2.23436 12.6367C2.19151 11.6874 2.18208 11.4029 2.18208 9C2.18208 6.59711 2.19108 6.31256 2.23436 5.36332C2.24135 4.79258 2.34615 4.22728 2.54422 3.69197C2.69394 3.30377 2.92329 2.95122 3.21751 2.65702C3.51172 2.36281 3.86429 2.13347 4.25251 1.98376C4.78784 1.7857 5.35318 1.6809 5.92393 1.67392C6.87322 1.63107 7.15779 1.62164 9.56079 1.62164ZM9.56079 0C7.11793 0 6.81022 0.0102852 5.85022 0.0539974C5.10324 0.0688544 4.36419 0.210282 3.66451 0.472263C3.06429 0.698395 2.52065 1.05276 2.07151 1.51064C1.61319 1.95992 1.2585 2.50385 1.03222 3.10442C0.770225 3.80408 0.628792 4.54309 0.613934 5.29003C0.571077 6.24913 0.560791 6.55683 0.560791 8.99957C0.560791 11.4423 0.571077 11.75 0.614791 12.71C0.629649 13.4569 0.771083 14.1959 1.03308 14.8956C1.25911 15.4961 1.6135 16.04 2.07151 16.4894C2.52089 16.9473 3.06484 17.3017 3.66536 17.5277C4.36505 17.7897 5.1041 17.9311 5.85108 17.946C6.81108 17.9889 7.11751 18 9.56165 18C12.0058 18 12.3122 17.9897 13.2722 17.946C14.0192 17.9311 14.7582 17.7897 15.4579 17.5277C16.0556 17.2961 16.5984 16.9422 17.0515 16.4889C17.5046 16.0355 17.8581 15.4925 18.0894 14.8947C18.3514 14.1951 18.4928 13.4561 18.5076 12.7091C18.5505 11.75 18.5608 11.4423 18.5608 8.99957C18.5608 6.55683 18.5505 6.24913 18.5068 5.28918C18.4919 4.54223 18.3505 3.80322 18.0885 3.10357C17.8625 2.50307 17.5081 1.95915 17.0501 1.50979C16.6007 1.0518 16.0567 0.697427 15.4562 0.471406C14.7565 0.209424 14.0175 0.0679973 13.2705 0.0531404C12.3114 0.0102853 12.0036 0 9.56079 0Z" fill="#000C19"/>
<path d="M9.55946 4.37842C8.64537 4.37842 7.75181 4.64946 6.99177 5.15728C6.23174 5.6651 5.63936 6.38688 5.28955 7.23134C4.93975 8.07581 4.84822 9.00504 5.02655 9.90152C5.20488 10.798 5.64506 11.6215 6.29142 12.2678C6.93777 12.9141 7.76128 13.3543 8.65781 13.5326C9.55433 13.7109 10.4836 13.6194 11.3281 13.2696C12.1726 12.9198 12.8944 12.3275 13.4023 11.5675C13.9101 10.8075 14.1812 9.91396 14.1812 8.99991C14.1812 7.77422 13.6942 6.59872 12.8275 5.73202C11.9608 4.86532 10.7852 4.37842 9.55946 4.37842ZM9.55946 11.9998C8.96612 11.9998 8.3861 11.8238 7.89275 11.4942C7.3994 11.1646 7.01488 10.6961 6.78782 10.1479C6.56076 9.59976 6.50135 8.99658 6.6171 8.41467C6.73286 7.83275 7.01858 7.29823 7.43814 6.87869C7.8577 6.45916 8.39225 6.17345 8.97419 6.0577C9.55613 5.94195 10.1593 6.00135 10.7075 6.22841C11.2557 6.45546 11.7242 6.83996 12.0539 7.33328C12.3835 7.82661 12.5595 8.4066 12.5595 8.99991C12.5595 9.79552 12.2434 10.5585 11.6808 11.1211C11.1182 11.6837 10.3551 11.9998 9.55946 11.9998Z" fill="#000C19"/>
<path d="M14.3645 5.27562C14.961 5.27562 15.4445 4.79211 15.4445 4.19567C15.4445 3.59923 14.961 3.11572 14.3645 3.11572C13.7681 3.11572 13.2845 3.59923 13.2845 4.19567C13.2845 4.79211 13.7681 5.27562 14.3645 5.27562Z" fill="#000C19"/>
</svg>
