<svg width="15" height="14" viewBox="0 0 15 14" fill="none" xmlns="http://www.w3.org/2000/svg">
<path d="M14.4082 2.05721C13.8679 2.32258 13.2976 2.48845 12.6972 2.58796C13.2976 2.1899 13.7778 1.55962 13.988 0.796659C13.4176 1.16155 12.7873 1.42693 12.0969 1.59279C11.5566 0.962521 10.7761 0.564453 9.93566 0.564453C8.31473 0.564453 6.99398 2.02403 6.99398 3.81534C6.99398 4.08072 7.024 4.31292 7.08403 4.54513C4.65265 4.41244 2.4614 3.11872 0.990564 1.12838C0.750427 1.62597 0.600342 2.15672 0.600342 2.75382C0.600342 3.88168 1.11063 4.87685 1.92109 5.47395C1.44082 5.44078 0.990564 5.30809 0.570325 5.07588V5.10906C0.570325 6.70133 1.59091 8.02822 2.94167 8.32677C2.70154 8.39311 2.43138 8.42629 2.16123 8.42629C1.98113 8.42629 1.77101 8.39311 1.59091 8.35994C1.98113 9.65366 3.06174 10.6157 4.35248 10.6157C3.3319 11.4781 2.07118 12.0089 0.690393 12.0089C0.450256 12.0089 0.21012 12.0089 0 11.9757C1.32075 12.9045 2.85162 13.4353 4.53258 13.4353C9.96567 13.4353 12.9374 8.45946 12.9374 4.14706C12.9374 4.01437 12.9374 3.84851 12.9374 3.71582C13.5077 3.28458 14.018 2.72065 14.4082 2.05721Z" fill="#000C19"/>
</svg>
